<?xml version="1.0" encoding="UTF-8" standalone="no"?>
<svg
   xmlns:dc="http://purl.org/dc/elements/1.1/"
   xmlns:cc="http://creativecommons.org/ns#"
   xmlns:rdf="http://www.w3.org/1999/02/22-rdf-syntax-ns#"
   xmlns:svg="http://www.w3.org/2000/svg"
   xmlns="http://www.w3.org/2000/svg"
   xmlns:sodipodi="http://sodipodi.sourceforge.net/DTD/sodipodi-0.dtd"
   xmlns:inkscape="http://www.inkscape.org/namespaces/inkscape"
   width="138.31958mm"
   height="151.05412mm"
   viewBox="0 0 138.31958 151.05413"
   version="1.1"
   id="svg839"
   sodipodi:docname="AnimaLand-logo-thick.svg"
   inkscape:version="1.0.1 (3bc2e813f5, 2020-09-07)">
  <defs
     id="defs833" />
  <sodipodi:namedview
     id="base"
     pagecolor="#ffffff"
     bordercolor="#666666"
     borderopacity="1.0"
     inkscape:pageopacity="0.0"
     inkscape:pageshadow="2"
     inkscape:zoom="5.6"
     inkscape:cx="131.96915"
     inkscape:cy="548.41462"
     inkscape:document-units="mm"
     inkscape:current-layer="layer1"
     inkscape:document-rotation="0"
     showgrid="false"
     inkscape:window-width="1920"
     inkscape:window-height="986"
     inkscape:window-x="-11"
     inkscape:window-y="-11"
     inkscape:window-maximized="1" />
  <metadata
     id="metadata836">
    <rdf:RDF>
      <cc:Work
         rdf:about="">
        <dc:format>image/svg+xml</dc:format>
        <dc:type
           rdf:resource="http://purl.org/dc/dcmitype/StillImage" />
        <dc:title></dc:title>
      </cc:Work>
    </rdf:RDF>
  </metadata>
  <g
     inkscape:label="Layer 1"
     inkscape:groupmode="layer"
     id="layer1"
     transform="translate(4.6866601,-49.261812)">
    <path
       style="fill:none;stroke:#000000;stroke-width:3;stroke-linecap:butt;stroke-linejoin:miter;stroke-miterlimit:4;stroke-dasharray:none;stroke-opacity:1"
       d="m 32.060304,198.31441 c 3.652077,-0.0677 8.509751,2.6537 10.168281,-17.10568 1.730501,-20.61683 -0.26727,-34.21049 -0.26727,-34.21049 0,0 -13.781417,9.00702 -24.187892,9.75533 -19.2536172,1.3845 -33.252323,-45.58621 -4.81085,-47.57396 0,0 -22.3474614,-6.7439 -8.113498,-30.948148 8.806212,-14.974586 21.924345,-12.647786 30.965042,-1.792377 -12.8434,-31.338491 13.204301,-26.514832 25.390605,-23.252449 25.476233,6.820216 4.810847,24.856066 4.810847,24.856066 0,0 23.881652,-9.434842 34.210501,1.870882 9.13541,9.999411 1.11699,23.130336 -13.363472,29.399656 15.806132,-0.20911 32.317692,30.4639 19.510672,36.8832 -14.187204,7.11109 -22.352763,3.27108 -34.036332,0.0162 -3.320551,-0.92506 -4.908154,-0.53345 -10.196773,1.72104 -8.195584,3.4937 -9.710475,11.07589 -8.15172,22.85155 1.228207,9.27852 -0.210761,16.73446 16.57071,17.63979 14.611269,0.78825 11.938056,-9.7058 20.597119,-10.29127 10.606526,-0.71714 18.287696,13.76048 26.308686,6.9504 7.1831,-6.09868 0.87156,-12.32545 -0.92988,-17.23725 -3.36706,-9.18062 2.52438,-11.43857 6.15366,-10.70192 3.82663,0.77671 6.06862,-0.40986 7.69387,-2.57094 2.16223,-2.87509 2.15481,-7.82031 0.44587,-10.78304 -2.24708,-3.84182 -9.44122,-7.17845 -23.25246,1.46999 -7.56092,4.73456 -15.115132,5.58054 -21.86885,4.46391 -5.838509,-0.96532 -15.81609,-4.22513 -12.886734,-9.23332"
       id="path1420"
       sodipodi:nodetypes="cscscscscscsssssssssacssc" />
    <path
       style="fill:none;stroke:#000000;stroke-width:3;stroke-linecap:butt;stroke-linejoin:miter;stroke-miterlimit:4;stroke-dasharray:none;stroke-opacity:1"
       d="m 60.023704,186.02031 c 0,0 -2.572894,8.34298 0,10.91587 2.040572,2.04057 6.589356,2.01271 8.657412,0 2.080855,-2.02517 0.236235,-8.70779 0.236235,-8.70779"
       id="path1424"
       sodipodi:nodetypes="caac" />
    <path
       style="fill:none;stroke:#000000;stroke-width:3;stroke-linecap:butt;stroke-linejoin:miter;stroke-miterlimit:4;stroke-dasharray:none;stroke-opacity:1"
       d="m 119.1421,183.61489 c 0,0 3.49757,8.93304 0.80181,11.8179 -1.9703,2.1085 -6.58936,2.01271 -8.65741,0 -2.08086,-2.02517 -0.23624,-8.70779 -0.23624,-8.70779"
       id="path1424-3"
       sodipodi:nodetypes="caac" />
  </g>
</svg>
